HIERARCHY
ROOT root
{
	OFFSET	0	13.1	24.9
	CHANNELS 6  Xposition Yposition Zposition Xrotation Yrotation Zrotation
	JOINT spine_1
	{
		OFFSET	0	9.99999	0
		CHANNELS 3  Xrotation Yrotation Zrotation
		JOINT spine_2
		{
			OFFSET	0	112	-10
			CHANNELS 3  Xrotation Yrotation Zrotation
			JOINT spine_3
			{
				OFFSET	0	206.5	19.3
				CHANNELS 3  Xrotation Yrotation Zrotation
				JOINT spine_4
				{
					OFFSET	0	110.4	14.6
					CHANNELS 3  Xrotation Yrotation Zrotation
					JOINT neck_1
					{
						OFFSET	0	71.8	-50.3
						CHANNELS 3  Xrotation Yrotation Zrotation
						JOINT neck_2
						{
							OFFSET	0	86.2	-25.8
							CHANNELS 3  Xrotation Yrotation Zrotation
							JOINT head_ee
							{
								OFFSET	0	179.8	-8.7
								CHANNELS 3  Xrotation Yrotation Zrotation
								End Site
								{
									OFFSET	1	0	0
								}
							}
						}
					}
					JOINT left_clavicle
					{
						OFFSET	-43.2	22.4	-70.8
						CHANNELS 3  Xrotation Yrotation Zrotation
						JOINT left_shoulder
						{
							OFFSET	-93.9	-5.79999	48.7
							CHANNELS 3  Xrotation Yrotation Zrotation
							JOINT left_elbow
							{
								OFFSET	-291.4	-30.8	15.2
								CHANNELS 3  Xrotation Yrotation Zrotation
								JOINT left_lowarm_twist
								{
									OFFSET	-110.7	-3.89999	13.6
									CHANNELS 3  Xrotation Yrotation Zrotation
									JOINT left_hand
									{
										OFFSET	-110.7	-3.89999	13.6
										CHANNELS 3  Xrotation Yrotation Zrotation
										JOINT left_ee
										{
											OFFSET	-80.8	-5.10001	12.1
											CHANNELS 3  Xrotation Yrotation Zrotation
											End Site
											{
												OFFSET	1	0	0
											}
										}
									}
								}
							}
						}
					}
					JOINT right_clavicle
					{
						OFFSET	43.2	22.4	-70.8
						CHANNELS 3  Xrotation Yrotation Zrotation
						JOINT right_shoulder
						{
							OFFSET	93.9	-5.79999	48.7
							CHANNELS 3  Xrotation Yrotation Zrotation
							JOINT right_elbow
							{
								OFFSET	291.4	-30.8	15.2
								CHANNELS 3  Xrotation Yrotation Zrotation
								JOINT right_lowarm_twist
								{
									OFFSET	110.7	-3.89999	13.6
									CHANNELS 3  Xrotation Yrotation Zrotation
									JOINT right_hand
									{
										OFFSET	110.7	-3.89999	13.6
										CHANNELS 3  Xrotation Yrotation Zrotation
										JOINT right_ee
										{
											OFFSET	80.8	-5.10001	12.1
											CHANNELS 3  Xrotation Yrotation Zrotation
											End Site
											{
												OFFSET	1	0	0
											}
										}
									}
								}
							}
						}
					}
				}
			}
		}
	}
	JOINT left_hip
	{
		OFFSET	-82.8	-127.5	0.300001
		CHANNELS 3  Xrotation Yrotation Zrotation
		JOINT left_knee
		{
			OFFSET	-28.2	-396.7	2.2
			CHANNELS 3  Xrotation Yrotation Zrotation
			JOINT left_ankle
			{
				OFFSET	-11.7	-411.3	35.4
				CHANNELS 3  Xrotation Yrotation Zrotation
				JOINT left_toes
				{
					OFFSET	0	-60	-88.6
					CHANNELS 3  Xrotation Yrotation Zrotation
					JOINT left_foot_ee
					{
						OFFSET	-22.5	-16.5	-42.2
						CHANNELS 3  Xrotation Yrotation Zrotation
						End Site
						{
							OFFSET	1	0	0
						}
					}
				}
			}
		}
	}
	JOINT right_hip
	{
		OFFSET	82.8	-127.5	0.300001
		CHANNELS 3  Xrotation Yrotation Zrotation
		JOINT right_knee
		{
			OFFSET	28.2	-396.7	2.2
			CHANNELS 3  Xrotation Yrotation Zrotation
			JOINT right_ankle
			{
				OFFSET	11.7	-411.3	35.4
				CHANNELS 3  Xrotation Yrotation Zrotation
				JOINT right_toes
				{
					OFFSET	0	-60	-88.6
					CHANNELS 3  Xrotation Yrotation Zrotation
					JOINT right_foot_ee
					{
						OFFSET	22.5	-16.5	-42.2
						CHANNELS 3  Xrotation Yrotation Zrotation
						End Site
						{
							OFFSET	1	0	0
						}
					}
				}
			}
		}
	}
}
MOTION
Frames: 13
Frame Time: 0.02
3211.38 661.451 -1587.7 12.9117 76.1509 -9.64928 -2.94729 0.404201 0.220864 -2.94735 0.389328 0.246137 -2.94564 0.3119 0.338937 -2.94562 0.361514 0.285425 -0.417264 18.9978 -2.26123 0.658495 35.8755 -0.607217 -0.0 0.0 -0.0 5.18477 24.2101 9.83936 -13.2217 20.828 72.6114 1.03354 -27.1112 0.2492 -14.2398 -0.713359 1.67049 -0.949429 27.417 5.53208 -0.0 0.0 -0.0 14.5013 26.4383 -29.1251 14.9239 24.1674 -65.1975 0.988412 26.0873 -0.228991 -11.2397 0.528779 -1.33393 2.33151 -0.707905 -16.06 0.0 0.0 0.0 28.1662 20.5698 -13.3577 -3.33068 0.122734 0.496348 2.4989 -29.4962 -0.459896 -15.2135 0.0 0.0 -0.0 0.0 -0.0 -20.5534 0.312735 0.919287 -11.8729 -0.303947 -1.79348 34.9416 18.4389 4.80578 -30.7317 0.0 0.0 0.0 0.0 0.0 
3197.62 658.768 -1584.59 12.7196 76.4687 -9.36857 -2.80451 0.359445 0.335992 -2.80451 0.337336 0.358183 -2.80228 0.233637 0.433018 -2.80242 0.299091 0.390686 0.00631866 18.0253 -2.05152 1.00309 33.8742 -0.563472 -0.0 0.0 -0.0 5.4203 23.7221 10.1901 -11.7866 19.9374 72.1122 1.02577 -26.9361 0.245666 -13.3665 -0.657808 1.57351 -0.752348 27.4411 6.62634 -0.0 0.0 -0.0 14.1046 26.659 -28.1648 14.3692 24.1573 -65.748 0.96421 25.5306 -0.218454 -10.1439 0.4658 -1.20868 2.10237 -0.700101 -14.4704 0.0 0.0 0.0 28.7886 20.2918 -13.6685 -5.53677 0.188043 0.828595 0.628763 -28.7018 -0.115176 -15.0854 0.0 0.0 -0.0 0.0 -0.0 -21.349 0.701346 1.60593 -13.4431 -0.316121 -2.03409 36.3155 20.0109 5.0055 -27.8748 0.0 0.0 0.0 0.0 0.0 
3179.21 660.31 -1580.74 12.2204 76.5599 -9.27478 -2.74288 0.343903 0.493495 -2.74279 0.311804 0.514378 -2.73975 0.169346 0.577171 -2.74012 0.258373 0.543184 0.384399 18.6164 -2.18632 1.51422 34.9676 -0.795372 -0.0 0.0 -0.0 5.41757 23.6181 10.1915 -10.7054 19.7503 71.6205 1.13559 -29.3584 0.297485 -13.0552 -0.638366 1.53874 -0.575503 26.7259 7.32307 -0.0 0.0 -0.0 14.1556 26.4623 -28.3095 13.6338 23.0644 -65.8032 0.911936 24.3106 -0.196427 -9.26876 0.417237 -1.10781 1.93993 -0.629231 -13.3249 0.0 0.0 0.0 28.8258 19.9977 -13.5074 -8.63832 0.258118 1.29934 0.69338 -29.2287 -0.127882 -13.6204 0.0 0.0 -0.0 0.0 -0.0 -21.1469 1.48112 2.64227 -14.7275 -0.321173 -2.23109 33.8603 18.7211 4.70452 -29.2851 0.0 0.0 0.0 0.0 0.0 
3151.87 661.271 -1574.13 11.5264 76.2745 -8.90921 -2.69964 0.187193 0.564837 -2.69948 0.150872 0.575603 -2.6977 -0.00148128 0.595045 -2.69818 0.0925119 0.587812 -0.101935 18.6895 -1.21927 0.886363 34.4258 0.428688 -0.0 0.0 -0.0 6.57239 22.9072 11.8801 -10.8327 21.2766 69.2975 1.12277 -29.0813 0.291225 -12.7772 -0.621164 1.5076 -0.575208 25.0186 6.65306 -0.0 0.0 -0.0 13.8904 25.9423 -27.7536 11.4067 23.0173 -66.5563 0.897564 23.9709 -0.190549 -8.69638 0.386313 -1.04145 1.68138 0.723451 -11.0144 0.0 0.0 0.0 26.4837 20.6136 -12.5341 -7.47622 0.23485 1.12253 0.0728064 -28.8064 -0.0133773 -13.4361 0.0 0.0 -0.0 0.0 -0.0 -22.2117 2.40952 3.66452 -17.5822 -0.316583 -2.669 35.2409 16.918 4.78186 -28.6186 0.0 0.0 0.0 0.0 0.0 
3107.57 670.133 -1560.45 13.4331 75.0316 -12.0805 -2.777 0.0971442 0.744396 -2.77669 0.0495808 0.749068 -2.77566 -0.14481 0.736609 -2.77642 -0.0266626 0.750233 3.92888 18.4787 0.309423 5.15366 31.8335 1.12008 -0.0 0.0 -0.0 7.78959 24.2986 13.4804 -9.34846 21.768 66.612 1.04242 -27.3105 0.25326 -13.1729 -0.645698 1.5519 -0.954651 26.8389 5.26408 -0.0 0.0 -0.0 13.5469 25.9459 -26.9518 8.12696 23.6275 -67.3566 0.762493 20.6923 -0.139205 -8.31644 0.366154 -0.99723 2.05447 2.94545 -12.6669 0.0 0.0 0.0 22.9792 21.7435 -10.639 -11.9663 0.304855 1.80777 6.4267 -27.1118 -1.131 -8.95647 0.0 0.0 -0.0 0.0 -0.0 -22.0891 4.78605 5.94781 -19.2385 -0.303922 -2.92281 34.333 9.65214 4.49132 -30.7304 0.0 0.0 0.0 0.0 0.0 
3083.33 674.628 -1554.98 12.3384 74.5301 -11.5122 -2.83191 0.0610702 0.746053 -2.8316 0.0134745 0.748426 -2.83106 -0.180241 0.726525 -2.83179 -0.0632414 0.745871 5.54235 18.6558 1.57928 6.77149 30.608 2.28933 -0.0 0.0 -0.0 8.69124 24.6663 14.7158 -9.26997 21.9947 65.215 1.13003 -29.2385 0.294766 -12.8931 -0.62832 1.5206 -0.993164 25.0508 4.30162 -0.0 0.0 -0.0 13.2896 26.4282 -26.2956 6.43313 23.9471 -67.9411 0.653998 17.9509 -0.103297 -7.64769 0.331386 -0.919084 2.44742 5.33355 -14.3906 0.0 0.0 0.0 19.8871 22.1982 -8.86217 -10.0545 0.281617 1.51537 6.74851 -26.2467 -1.17383 -9.51204 0.0 0.0 -0.0 0.0 -0.0 -21.2571 6.72875 7.23092 -23.3587 -0.240657 -3.55174 35.0811 2.12886 4.44601 -32.4567 0.0 0.0 0.0 0.0 0.0 
3059.28 679.581 -1548.96 13.2744 74.3969 -13.0929 -2.83039 0.0257347 0.809984 -2.83003 -0.0258571 0.80998 -2.83 -0.234124 0.775839 -2.83082 -0.108661 0.803075 6.45692 18.1921 1.51419 7.67097 29.6051 2.06747 -0.0 0.0 -0.0 9.36873 24.5462 15.7116 -8.5382 22.1132 63.8177 1.11483 -28.909 0.287379 -12.9486 -0.631753 1.52681 -1.36674 24.6553 2.02057 -0.0 0.0 -0.0 13.2105 26.0509 -26.158 4.85607 23.4427 -67.7915 0.569963 15.7668 -0.0789213 -7.02447 0.29981 -0.845904 2.82377 5.24051 -17.0665 0.0 0.0 0.0 16.3776 23.0474 -6.46283 -8.47196 0.255007 1.274 11.2323 -24.8045 -1.88651 -10.5334 0.0 0.0 -0.0 0.0 -0.0 -20.871 10.0218 7.15657 -26.4517 -0.163539 -4.02007 37.2003 -3.59054 4.60914 -34.0162 0.0 0.0 0.0 0.0 0.0 
3034.38 680.457 -1542.46 12.095 72.7497 -12.3991 -2.85972 0.123593 0.84135 -2.85933 0.0698069 0.847509 -2.85779 -0.151792 0.836723 -2.85876 -0.0177475 0.850194 7.39319 18.4045 2.71256 8.54919 28.6302 3.36949 -0.0 0.0 -0.0 9.83665 24.5549 16.3917 -7.72072 22.273 62.961 1.143 -29.5179 0.301125 -12.1942 -0.585579 1.44203 -1.38728 24.4696 1.82156 -0.0 0.0 -0.0 13.0323 26.2568 -25.7213 3.03072 23.3735 -68.1082 0.501916 13.9628 -0.0614623 -6.73695 0.285512 -0.812029 3.21728 5.71874 -19.6556 0.0 0.0 0.0 13.4156 23.5168 -4.12007 -8.18185 0.249406 1.22983 11.9725 -20.0943 -1.91072 -10.6011 0.0 0.0 -0.0 0.0 -0.0 -20.5812 13.4755 8.15064 -29.8432 -0.0500415 -4.52812 40.2631 -8.56426 4.89024 -35.3312 0.0 0.0 0.0 0.0 0.0 
3012.69 679.998 -1537.04 13.8543 72.2697 -14.7494 -2.71619 0.104039 0.952419 -2.71569 0.0432263 0.957108 -2.71437 -0.203482 0.936228 -2.71559 -0.0530756 0.956612 7.75533 17.945 2.70837 8.85331 27.7432 3.33553 -0.0 0.0 -0.0 10.1556 21.9275 17.3636 -6.7991 19.9304 61.9114 1.11856 -28.9901 0.289186 -11.3756 -0.536752 1.34937 -1.31494 24.3845 2.19376 -0.0 0.0 -0.0 13.1095 26.3454 -25.8891 1.31336 23.0769 -67.7918 0.453415 12.6592 -0.050295 -6.51605 0.274643 -0.785955 3.52896 5.9386 -21.806 0.0 0.0 0.0 10.8173 23.8515 -2.49224 -7.79444 0.241578 1.1709 15.3224 -19.7321 -2.40035 -10.0955 0.0 0.0 -0.0 0.0 -0.0 -20.0768 16.6595 7.65376 -33.8621 0.123133 -5.12039 40.2464 -12.5732 4.92239 -37.0597 0.0 0.0 0.0 0.0 0.0 
2994.92 681.6 -1532.33 13.8534 72.0182 -15.1033 -2.69978 -0.0934142 0.917236 -2.69932 -0.151589 0.909434 -2.70135 -0.379403 0.840304 -2.70226 -0.241936 0.889674 6.41331 17.5938 3.76738 7.31624 26.5958 4.77958 -0.0 0.0 -0.0 10.0584 21.6817 17.2571 -3.67601 19.8046 61.6066 1.11416 -28.8943 0.287053 -10.8951 -0.508711 1.29466 -1.49732 24.0269 0.997429 -0.0 0.0 -0.0 12.9404 26.3184 -25.5017 -0.927292 22.8966 -67.5742 0.412374 11.5456 -0.0416899 -6.92946 0.295067 -0.834717 3.75714 6.44491 -23.2447 0.0 0.0 0.0 8.96778 24.2193 -1.09507 -8.55181 0.256509 1.28616 18.6673 -17.8498 -2.83024 -9.65083 0.0 0.0 -0.0 0.0 -0.0 -18.5079 20.4357 6.46973 -38.2637 0.360014 -5.75367 40.2976 -14.1046 4.94625 -36.9093 0.0 0.0 0.0 0.0 0.0 
2963.53 685.552 -1527.66 16.9387 71.9484 -18.4383 -2.73363 -0.142596 0.976945 -2.73312 -0.20447 0.965892 -2.73619 -0.445522 0.881067 -2.73715 -0.300789 0.940365 3.98558 16.4469 3.31543 4.69751 25.6857 4.55847 -0.0 0.0 -0.0 9.85338 20.8868 17.0747 -3.13807 17.2664 61.778 1.03255 -27.0888 0.248746 -10.3574 -0.477881 1.23317 -1.42899 23.7291 1.25217 -0.0 0.0 -0.0 12.6999 24.9693 -25.1009 -3.71076 22.3322 -67.8107 0.363367 10.2042 -0.0324433 -7.37908 0.317679 -0.887584 4.15583 7.42772 -25.7441 0.0 0.0 0.0 6.90843 24.0883 0.454761 -11.3824 0.298794 1.7184 21.7379 -17.5401 -3.23393 -9.36679 0.0 0.0 -0.0 0.0 -0.0 -15.5647 24.8076 4.75066 -44.6305 0.787325 -6.63399 40.4761 -16.152 4.99387 -37.6605 0.0 0.0 0.0 0.0 0.0 
2945.73 689.46 -1526.7 19.6436 72.5529 -21.4621 -2.62855 -0.297264 0.939343 -2.62813 -0.356432 0.918526 -2.63369 -0.578822 0.797314 -2.6343 -0.445642 0.878716 3.16822 16.2576 3.29778 3.8284 25.5826 4.64838 -0.0 0.0 -0.0 9.85693 19.6766 17.2816 -1.64669 14.7217 61.4685 1.02021 -26.8106 0.243155 -9.91634 -0.453023 1.18252 -1.40433 23.602 1.33598 -0.0 0.0 -0.0 12.8204 24.7564 -25.402 -5.63435 21.8998 -67.7832 0.329223 9.26285 -0.0266705 -6.99286 0.29823 -0.842183 4.38857 8.76528 -26.8503 0.0 0.0 0.0 5.23606 24.3615 1.35559 -13.1483 0.314338 1.98889 23.0406 -17.2217 -3.39414 -9.59808 0.0 0.0 -0.0 0.0 -0.0 -12.103 27.9664 2.96955 -49.6747 1.19396 -7.2951 40.6759 -16.76 5.02248 -38.1833 0.0 0.0 0.0 0.0 0.0 
2928.16 694.724 -1526.32 19.991 71.8461 -21.823 -2.5831 -0.302262 0.919089 -2.5827 -0.360131 0.897995 -2.58822 -0.576546 0.776977 -2.58878 -0.446606 0.858275 1.42899 16.0963 3.37554 1.99274 25.672 4.99115 -0.0 0.0 -0.0 9.34659 17.8266 16.7275 3.70459 12.7902 60.6717 1.0416 -27.2922 0.252884 -9.04538 -0.40509 1.08195 -1.37708 25.8642 2.49976 -0.0 0.0 -0.0 12.9494 24.9004 -25.6847 -7.54709 22.3722 -67.2938 0.306505 8.63367 -0.0231368 -7.72117 0.335161 -0.927691 4.6229 9.05125 -28.488 0.0 0.0 0.0 2.21917 24.6699 2.2897 -11.9315 0.30452 1.80246 24.8887 -18.3978 -3.66085 -9.49728 0.0 0.0 -0.0 0.0 -0.0 -5.07405 31.1515 -0.225903 -57.8661 1.97403 -8.28617 40.5044 -16.9592 5.01081 -39.3266 0.0 0.0 0.0 0.0 0.0 
